<svg width="96" height="96" xmlns="http://www.w3.org/2000/svg" xmlns:xlink="http://www.w3.org/1999/xlink" xml:space="preserve" overflow="hidden"><defs><clipPath id="clip0"><rect x="592" y="312" width="96" height="96"/></clipPath></defs><g clip-path="url(#clip0)" transform="translate(-592 -312)"><path d="M640 401C636.907 401 635.3 399.237 633.861 397.225 632.744 395.664 632.023 394.772 630.215 394.606 627.988 394.406 625.879 395.617 623.437 397.022 619.386 399.355 614.344 402.256 607.144 398.858 606.152 398.372 605.742 397.174 606.228 396.182 606.704 395.211 607.866 394.794 608.851 395.241 614.161 397.747 617.535 395.804 621.441 393.556 624.219 391.956 627.088 390.302 630.581 390.623 634.299 390.964 635.925 393.237 637.114 394.897 638.53 396.875 639.241 397.868 643.655 396.097 644.681 395.687 645.845 396.185 646.255 397.211 646.665 398.237 646.167 399.401 645.141 399.811 643.518 400.528 641.773 400.931 640 401Z" fill="#fff"/><path d="M616.3 375.918C614.05 379.554 609.255 387.8 607.266 394.977 607.258 395.014 607.282 395.05 607.319 395.057 607.344 395.063 607.37 395.053 607.386 395.033 609.159 392.906 611.191 391.009 613.434 389.386L613.434 389.386C613.462 389.303 615.174 384.425 620.247 376.713 620.257 376.698 620.274 376.69 620.292 376.693 622.112 376.853 623.945 376.621 625.668 376.011 632.685 374.063 637.768 367.394 638.268 366.711 638.288 366.684 638.268 366.654 638.232 366.654 635.524 366.622 632.857 365.989 630.423 364.8 630.361 364.77 630.319 364.71 630.312 364.642 630.308 364.614 630.311 364.586 630.32 364.559 630.349 364.464 630.444 364.404 630.543 364.42L630.549 364.42C635.903 365.268 641.308 363.244 644.788 359.088 646.949 356.49 649.324 354.077 651.888 351.875 655.105 349.112 659.176 346.369 662.938 343.533 663.134 343.377 663.166 343.092 663.01 342.896 662.942 342.811 662.846 342.753 662.738 342.733 660.263 342.271 657.91 341.302 655.828 339.886 655.779 339.853 655.747 339.801 655.741 339.742 655.736 339.704 655.742 339.666 655.759 339.632 655.802 339.542 655.905 339.497 656 339.527 659.141 340.487 662.483 340.585 665.675 339.811 667.554 339.347 669.24 338.303 670.492 336.827 673.823 332.936 675.192 328.753 672.153 324.041 670.081 320.828 665.462 319.441 659.475 320.132 655.969 320.501 652.967 322.808 651.707 326.1 651.277 327.253 650.965 328.448 650.776 329.664 650.776 329.775 650.687 329.864 650.576 329.864 650.466 329.864 650.376 329.775 650.376 329.664 650.347 329.464 650.322 329.264 650.299 329.064 650.077 327.077 650.182 325.066 650.612 323.113 650.671 322.875 650.526 322.635 650.289 322.576 650.202 322.555 650.111 322.56 650.028 322.591 645.337 324.472 640.902 326.937 636.828 329.929 632.11 333.324 627.784 337.233 623.928 341.582 621.453 344.362 620.13 347.981 620.228 351.702 620.29 353.263 620.553 354.809 621.012 356.302 621.05 356.406 620.996 356.521 620.892 356.558 620.803 356.591 620.703 356.556 620.653 356.474 619.373 354.59 618.458 352.483 617.953 350.262L617.871 350.249C615.483 354.828 612.9 362 612.492 366.749 612.235 369.761 613.079 372.463 614.63 373.935 614.647 373.953 614.675 373.953 614.692 373.936 614.695 373.933 614.698 373.93 614.7 373.926 618.449 367.314 626.034 356.053 631.435 350.644 635.552 346.419 640.147 342.688 645.127 339.525 645.828 339.083 646.591 338.746 647.39 338.525 647.494 338.489 647.608 338.545 647.644 338.649 647.675 338.738 647.639 338.836 647.559 338.885 643.464 341.735 639.631 344.943 636.105 348.473 629.873 354.711 621.173 366.726 616.983 374.7 616.764 375.12 616.543 375.519 616.3 375.918Z" fill="#ffffff"/></g></svg>